<svg xmlns="http://www.w3.org/2000/svg" xmlns:xlink="http://www.w3.org/1999/xlink" viewBox="0 0 50.83 40"><path d="M40.83,6l-2,2,4,4v4l4,4V30a2,2,0,0,1-4,0V24a4,4,0,0,0-4-4h-2V4a4,4,0,0,0-4-4h-16a4,4,0,0,0-4,4V36h-2v4h28V36h-2V24h2v6a6,6,0,0,0,12,0V16Zm-8,10h-16V4h16Z" fill="currentColor"/><path d="M21.66,29.17A10.83,10.83,0,1,1,10.83,18.34,10.83,10.83,0,0,1,21.66,29.17" fill="#33af3c" fill-rule="evenodd"/><path d="M8.91,33.8,4.63,29.52a.65.65,0,0,1,0-.91l1.15-1.16a.66.66,0,0,1,.92,0l2.67,2.68L15,24.54a.64.64,0,0,1,.92,0L17,25.69a.65.65,0,0,1,0,.91l-7.2,7.2a.64.64,0,0,1-.92,0" fill="#fff"/></svg>