<svg xmlns="http://www.w3.org/2000/svg" viewBox="0 0 20 21.28"><polygon points="15.73 15.63 12.9 12.8 11.48 14.21 14.31 17.04 11.52 19.84 12.93 21.25 15.73 18.46 18.56 21.29 19.97 19.87 17.14 17.04 20 14.18 18.59 12.77 15.73 15.63" fill="currentColor" /><polygon points="2 0 2 2 0 2 0 4 2 4 2 6 4 6 4 4 20 4 20 2 4 2 4 0 2 0" fill="currentColor" /><polygon points="9 7 9 9 0 9 0 11 9 11 9 13 11 13 11 11 20 11 20 9 11 9 11 7 9 7" fill="currentColor" /><polygon points="19.6 16 18.56 17.04 19.51 18 20 18 20 16 19.6 16" fill="currentColor" /><polygon points="2 14 2 16 0 16 0 18 2 18 2 20 4 20 4 18 11.94 18 12.9 17.04 11.86 16 4 16 4 14 2 14" fill="currentColor" /></svg>