<svg xmlns="http://www.w3.org/2000/svg" xmlns:xlink="http://www.w3.org/1999/xlink" viewBox="0 0 18.95 20"><path d="M16.83,2C16.34,1.51,14.34,0,9.85,0,9.85,0,4.58-.3,2,2.06.56,3.5.06,5.58,0,8.18S-.12,15.63,4.58,17v2s0,.81.5,1,1-.42,1.65-1.08c.34-.36.81-.89,1.15-1.31a17.72,17.72,0,0,0,6-.45c.66-.21,4.31-.68,4.91-5.53.63-5-.26-8.22-1.92-9.63M14,13.25a3.5,3.5,0,0,1-.85,1,1.68,1.68,0,0,1-.85.43h-.11a1.59,1.59,0,0,1-.37-.06,13.19,13.19,0,0,1-2.35-1.08,14,14,0,0,1-2-1.3,7.73,7.73,0,0,1-.88-.79l-.11-.11a9.91,9.91,0,0,1-.79-.88,15,15,0,0,1-1.31-2A11.25,11.25,0,0,1,3.35,6.18a1.43,1.43,0,0,1-.06-.37V5.7a1.47,1.47,0,0,1,.43-.85,4.52,4.52,0,0,1,1-.85.76.76,0,0,1,1,.17s.51.62.74.93.48.74.65,1A.92.92,0,0,1,7,7.22l-.51.4a.8.8,0,0,0-.23.6,5.19,5.19,0,0,0,3.51,3.53.77.77,0,0,0,.6-.22l.39-.51a.89.89,0,0,1,1.14-.17,8.76,8.76,0,0,1,1,.65c.31.22.93.73.93.73a.78.78,0,0,1,.17,1m-2.4-6.9a3.31,3.31,0,0,0-2.27-1,.42.42,0,0,1-.39-.45.42.42,0,0,1,.45-.39,4.16,4.16,0,0,1,2.83,1.27,3.86,3.86,0,0,1,1,2.79.43.43,0,0,1-.43.41h0a.43.43,0,0,1-.41-.44,3,3,0,0,0-.76-2.19m.19,1.73a.42.42,0,0,1-.4.44h0a.42.42,0,0,1-.42-.4c0-.86-.42-1.25-1.24-1.3a.41.41,0,0,1-.4-.44A.43.43,0,0,1,9.74,6a2,2,0,0,1,2,2.1m2.41,1.46a.42.42,0,0,1-.42-.42,5,5,0,0,0-1.43-3.77A4.87,4.87,0,0,0,8.81,4a.43.43,0,0,1,0-.85,5.73,5.73,0,0,1,4.12,1.62,5.88,5.88,0,0,1,1.68,4.38.42.42,0,0,1-.42.42" fill="currentColor" /></svg>