<svg xmlns="http://www.w3.org/2000/svg" xmlns:xlink="http://www.w3.org/1999/xlink" width="44.33" height="39.6" viewBox="0 0 44.33 39.6"><defs><clipPath id="a" transform="translate(0 0)"><rect width="44.33" height="39.6" fill="none"/></clipPath></defs><g clip-path="url(#a)"><path d="M10.44,4.94l0,0,2-2.05.06,0A1.41,1.41,0,0,1,15,3.34a.41.41,0,0,1,.05.19c.46,3.73.76,7.32,1.21,11.05.09,1.24-.75,1.75-1.89,1.62L4.2,15.11C2.43,14.9,1.55,13.73,3,12.31c.64-.64,1.28-1.29,1.93-1.92L.21,5.7a.71.71,0,0,1,0-1L4.69.21a.72.72,0,0,1,1,0Zm11.73,10a4.91,4.91,0,1,1-4.91,4.91,4.91,4.91,0,0,1,4.91-4.91M33.89,34.66l0,0-2,2.05-.05,0a1.41,1.41,0,0,1-2.44-.52.66.66,0,0,1-.06-.2c-.45-3.73-.77-7.31-1.2-11-.09-1.24.74-1.75,1.89-1.62l10.17,1.08c1.78.21,2.66,1.39,1.24,2.81-.65.64-1.28,1.29-1.93,1.92l4.69,4.69a.73.73,0,0,1,0,1l-4.48,4.48a.71.71,0,0,1-1,0Zm-23.45,0,0,0,2,2.05.06,0A1.41,1.41,0,0,0,15,36.26a.46.46,0,0,0,.05-.2c.46-3.73.76-7.31,1.21-11,.09-1.24-.75-1.75-1.89-1.62L4.2,24.48c-1.77.21-2.65,1.39-1.23,2.81.64.64,1.28,1.3,1.93,1.93L.21,33.91a.73.73,0,0,0,0,1l4.48,4.47a.72.72,0,0,0,1,0ZM33.89,4.94l0,0-2-2.05-.05,0a1.41,1.41,0,0,0-2.44.52.6.6,0,0,0-.06.19c-.45,3.73-.77,7.32-1.2,11.05-.09,1.24.74,1.75,1.89,1.62l10.17-1.09c1.78-.21,2.66-1.38,1.24-2.8-.65-.64-1.28-1.29-1.93-1.92L44.13,5.7a.73.73,0,0,0,0-1L39.64.21a.71.71,0,0,0-1,0Z" transform="translate(0 0)"/></g></svg>