<svg xmlns="http://www.w3.org/2000/svg" xmlns:xlink="http://www.w3.org/1999/xlink" width="64" height="34.39" viewBox="0 0 64 34.39"><defs><clipPath id="a" transform="translate(0 0)"><rect width="64" height="34.39" fill="none"/></clipPath></defs><g clip-path="url(#a)"><path d="M64,14.39l-.91-3h0L54.83,1,52.67,0H40.52a2.28,2.28,0,0,0-2.28,2.29V24.53h-3V21.14a2.75,2.75,0,0,0-2.74-2.75H3a3,3,0,0,0-3,3v4.7a3,3,0,0,0,3,3H9.8a6.44,6.44,0,0,0,12.7,0H42.94a6.44,6.44,0,0,0,12.7,0h6.64A1.72,1.72,0,0,0,64,27.31V14.4ZM19.56,27.94a3.45,3.45,0,0,1-5,3.06,3.34,3.34,0,0,1-1.83-3.06h0v0a3.31,3.31,0,0,1,1.74-3,3.45,3.45,0,0,1,5.08,3Zm33.14,0a3.44,3.44,0,0,1-5,3.06,3.34,3.34,0,0,1-1.84-3.06v0a3.31,3.31,0,0,1,1.75-3,3.44,3.44,0,0,1,5.07,3ZM58.31,11H42.1V3.58s0,0,0,0H52.35l6,7.43v0" transform="translate(0 0)"/><path d="M7.45,21.05H0V12.8a2,2,0,0,1,2-2H5.46a2,2,0,0,1,2,2Z" transform="translate(0 0)"/></g></svg>