<svg width="0" height="0" class="hidden">
  <symbol xmlns="http://www.w3.org/2000/svg" viewBox="0 0 12.73 22.63" id="ic_arr_hor">
    <rect x="5.36" y="-1.64" width="2" height="16" transform="translate(-2.64 6.36) rotate(-45)" fill="currentColor"></rect>
    <rect x="-1.64" y="15.26" width="16" height="2" transform="translate(-9.64 9.27) rotate(-45.02)" fill="currentColor"></rect>
  </symbol>
  <symbol xmlns="http://www.w3.org/2000/svg" viewBox="0 0 8.49 5.66" id="ic_arr_ver">
    <rect x="-0.17" y="1.83" width="6" height="2" transform="translate(-1.17 2.83) rotate(-45)" fill="currentColor"></rect>
    <rect x="4.66" y="-0.17" width="2" height="6" transform="translate(-0.34 4.83) rotate(-45)" fill="currentColor"></rect>
  </symbol>
  <symbol xmlns="http://www.w3.org/2000/svg" viewBox="0 0 22.07 15.07" id="ic_arrow_hor">
    <polygon points="14.54 0 13.12 1.41 18.24 6.54 0 6.54 0 8.54 18.24 8.54 13.12 13.66 14.54 15.07 20.66 8.95 22.07 7.54 22.07 7.54 20.66 6.12 14.54 0 14.54 0" fill="currentColor"></polygon>
  </symbol>
  <symbol xmlns="http://www.w3.org/2000/svg" viewBox="0 0 22 20" id="ic_calendar">
    <rect x="4" y="9" width="2" height="2" fill="currentColor"></rect>
    <rect x="8" y="9" width="1.93" height="2" fill="currentColor"></rect>
    <rect x="12" y="9" width="1.93" height="2" fill="currentColor"></rect>
    <rect x="16" y="9" width="1.93" height="2" fill="currentColor"></rect>
    <rect x="4" y="13" width="2" height="2" fill="currentColor"></rect>
    <rect x="8" y="13" width="1.93" height="2" fill="currentColor"></rect>
    <rect x="12" y="13" width="1.93" height="2" fill="currentColor"></rect>
    <rect x="16" y="13" width="1.93" height="2" fill="currentColor"></rect>
    <path d="M18,6V4h2V18H2V4H4V6H6V4H16V6ZM16,0V2H6V0H4V2H0V20H22V2H18V0Z" fill="currentColor"></path>
  </symbol>
  <symbol xmlns="http://www.w3.org/2000/svg" xmlns:xlink="http://www.w3.org/1999/xlink" viewBox="0 0 20 20" id="ic_cart">
    <path d="M15,3,14,4l2,2V8l2,2v5a1,1,0,0,1-2,0V12a2,2,0,0,0-2-2H13V2a2,2,0,0,0-2-2H3A2,2,0,0,0,1,2V18H0v2H14V18H13V12h1v3a3,3,0,0,0,6,0V8ZM11,8H3V2h8Z" fill="currentColor"></path>
  </symbol>
  <symbol xmlns="http://www.w3.org/2000/svg" xmlns:xlink="http://www.w3.org/1999/xlink" viewBox="0 0 50.83 40" id="ic_cart_a">
    <path d="M40.83,6l-2,2,4,4v4l4,4V30a2,2,0,0,1-4,0V24a4,4,0,0,0-4-4h-2V4a4,4,0,0,0-4-4h-16a4,4,0,0,0-4,4V36h-2v4h28V36h-2V24h2v6a6,6,0,0,0,12,0V16Zm-8,10h-16V4h16Z" fill="currentColor"></path>
    <path d="M21.66,29.17A10.83,10.83,0,1,1,10.83,18.34,10.83,10.83,0,0,1,21.66,29.17" fill="#33af3c" fill-rule="evenodd"></path>
    <path d="M8.91,33.8,4.63,29.52a.65.65,0,0,1,0-.91l1.15-1.16a.66.66,0,0,1,.92,0l2.67,2.68L15,24.54a.64.64,0,0,1,.92,0L17,25.69a.65.65,0,0,1,0,.91l-7.2,7.2a.64.64,0,0,1-.92,0" fill="#fff"></path>
  </symbol>
  <symbol xmlns="http://www.w3.org/2000/svg" viewBox="0 0 11.15 8.32" id="ic_check">
    <rect x="1.83" y="2.49" width="2" height="6" transform="translate(-3.05 3.61) rotate(-45)" fill="currentColor"></rect>
    <rect x="2.11" y="3.16" width="9.76" height="2" transform="translate(-0.89 6.16) rotate(-45)" fill="currentColor"></rect>
  </symbol>
  <symbol xmlns="http://www.w3.org/2000/svg" viewBox="0 0 20 21.28" id="ic_clear">
    <path d="M15.73,15.63,12.9,12.8l-1.42,1.41L14.31,17l-2.8,2.8,1.42,1.41,2.8-2.79,2.83,2.83L20,19.87,17.14,17,20,14.18l-1.41-1.41ZM7,2h6V4H7ZM5,0V4H0V6H1V20h9.26l-.16-.16.71-.71L11.94,18H3V6H17v6.94l.88-.88.71-.7.41.41V6h1V4H15V0Z" fill="currentColor"></path>
  </symbol>
  <symbol xmlns="http://www.w3.org/2000/svg" viewBox="0 0 15.56 15.56" id="ic_close">
    <rect x="6.78" y="-2.22" width="2" height="20" transform="translate(-3.22 7.78) rotate(-45)" fill="currentColor"></rect>
    <rect x="-2.22" y="6.78" width="20" height="2" transform="translate(-3.22 7.78) rotate(-45)" fill="currentColor"></rect>
  </symbol>
  <symbol xmlns="http://www.w3.org/2000/svg" xmlns:xlink="http://www.w3.org/1999/xlink" viewBox="0 0 15.52 20" id="ic_favorite">
    <path d="M6.35.26.07,11.15a.53.53,0,0,0,.46.79H4.71a.53.53,0,0,1,.46.79L1.43,19.2a.53.53,0,0,0,.77.69l13.11-9.52a.53.53,0,0,0-.31-1H11.23a.53.53,0,0,1-.46-.79L15.29.79A.52.52,0,0,0,14.84,0h-8a.54.54,0,0,0-.46.26" fill="currentColor"></path>
  </symbol>
  <symbol xmlns="http://www.w3.org/2000/svg" viewBox="0 0 22 20" id="ic_file">
    <polygon points="16 10 16 14.04 12 14.04 12 16.04 16 16.04 16 20 18 20 18 16.04 22 16.04 22 14.04 18 14.04 18 10 16 10" fill="currentColor"></polygon>
    <rect x="4" y="4" width="10" height="2" fill="currentColor"></rect>
    <rect x="4" y="8" width="10" height="2" fill="currentColor"></rect>
    <polygon points="0 0 0 20 14 20 14 18 2 18 2 2 16 2 16 8 18 8 18 0 0 0" fill="currentColor"></polygon>
  </symbol>
  <symbol xmlns="http://www.w3.org/2000/svg" viewBox="0 0 20 20" id="ic_filter">
    <polygon points="2 0 2 2 0 2 0 4 2 4 2 6 4 6 4 4 20 4 20 2 4 2 4 0 2 0" fill="currentColor"></polygon>
    <polygon points="9 7 9 9 0 9 0 11 9 11 9 13 11 13 11 11 20 11 20 9 11 9 11 7 9 7" fill="currentColor"></polygon>
    <polygon points="2 14 2 16 0 16 0 18 2 18 2 20 4 20 4 18 20 18 20 16 4 16 4 14 2 14" fill="currentColor"></polygon>
  </symbol>
  <symbol xmlns="http://www.w3.org/2000/svg" viewBox="0 0 20 21.28" id="ic_filter_a">
    <polygon points="15.73 15.63 12.9 12.8 11.48 14.21 14.31 17.04 11.52 19.84 12.93 21.25 15.73 18.46 18.56 21.29 19.97 19.87 17.14 17.04 20 14.18 18.59 12.77 15.73 15.63" fill="currentColor"></polygon>
    <polygon points="2 0 2 2 0 2 0 4 2 4 2 6 4 6 4 4 20 4 20 2 4 2 4 0 2 0" fill="currentColor"></polygon>
    <polygon points="9 7 9 9 0 9 0 11 9 11 9 13 11 13 11 11 20 11 20 9 11 9 11 7 9 7" fill="currentColor"></polygon>
    <polygon points="19.6 16 18.56 17.04 19.51 18 20 18 20 16 19.6 16" fill="currentColor"></polygon>
    <polygon points="2 14 2 16 0 16 0 18 2 18 2 20 4 20 4 18 11.94 18 12.9 17.04 11.86 16 4 16 4 14 2 14" fill="currentColor"></polygon>
  </symbol>
  <symbol xmlns="http://www.w3.org/2000/svg" xmlns:xlink="http://www.w3.org/1999/xlink" viewBox="0 0 15.14 20" id="ic_location">
    <path d="M7.57,0h0A7.58,7.58,0,0,0,0,7.57c0,2.85,2.21,5.27,4.17,7.4,1.51,1.65,2.94,3.21,2.94,4.56a.46.46,0,1,0,.92,0C8,18.18,9.46,16.62,11,15c2-2.13,4.17-4.55,4.17-7.4A7.58,7.58,0,0,0,7.57,0m0,10.76a3.2,3.2,0,1,1,3.2-3.2,3.19,3.19,0,0,1-3.2,3.2" fill="currentColor"></path>
  </symbol>
  <symbol xmlns="http://www.w3.org/2000/svg" viewBox="0 0 20 20" id="ic_logout">
    <polygon points="1.41 8.59 0 10 1.41 11.41 4.5 14.5 5.91 13.09 3.83 11 16 11 16 9 3.83 9 5.91 6.91 4.5 5.5 1.41 8.59" fill="currentColor"></polygon>
    <polygon points="2 0 2 4 4 4 4 2 18 2 18 18 4 18 4 16 2 16 2 20 20 20 20 0 2 0" fill="currentColor"></polygon>
  </symbol>
  <symbol xmlns="http://www.w3.org/2000/svg" viewBox="0 0 76 16" id="ic_menu">
    <rect width="76" height="2" fill="currentColor"></rect>
    <rect y="7" width="76" height="2" fill="currentColor"></rect>
    <rect y="14" width="76" height="2" fill="currentColor"></rect>
  </symbol>
  <symbol xmlns="http://www.w3.org/2000/svg" viewBox="0 0 28.28 24" id="ic_notice">
    <polygon points="14.14 0 0 24 28.29 24 14.14 0" fill="currentColor"></polygon>
    <rect x="13.14" y="8" width="2" height="9" fill="#fff"></rect>
    <rect x="13.14" y="19" width="2" height="2" fill="#fff"></rect>
  </symbol>
  <symbol xmlns="http://www.w3.org/2000/svg" viewBox="0 0 20 20" id="ic_remove">
    <path d="M3,6H17V18H3ZM7,2h6V4H7ZM5,0V4H0V6H1V20H19V6h1V4H15V0Z" fill="currentColor"></path>
  </symbol>
  <symbol xmlns="http://www.w3.org/2000/svg" xmlns:xlink="http://www.w3.org/1999/xlink" viewBox="0 0 17.67 17.67" id="ic_search">
    <path d="M16.67,7.49A6.49,6.49,0,1,1,10.18,1,6.5,6.5,0,0,1,16.67,7.49Z" fill="none" stroke="currentColor" stroke-linecap="round" stroke-linejoin="round" stroke-width="2"></path>
    <line x1="5.45" y1="12.22" x2="1" y2="16.67" fill="none" stroke="currentColor" stroke-linecap="round" stroke-linejoin="round" stroke-width="2"></line>
  </symbol>
  <symbol xmlns="http://www.w3.org/2000/svg" xmlns:xlink="http://www.w3.org/1999/xlink" viewBox="0 0 23.85 20" id="ic_tg">
    <path d="M23.78,1.82l-3.6,17c-.27,1.2-1,1.5-2,.93l-5.49-4-2.64,2.55A1.41,1.41,0,0,1,9,18.77l.4-5.59L19.52,4c.44-.4-.09-.61-.69-.22L6.27,11.69.86,10c-1.18-.37-1.2-1.18.25-1.74L22.26.11c1-.37,1.84.21,1.52,1.71" fill="currentColor"></path>
  </symbol>
  <symbol xmlns="http://www.w3.org/2000/svg" xmlns:xlink="http://www.w3.org/1999/xlink" viewBox="0 0 17.55 20" id="ic_user">
    <path d="M13.89,5.11A5.12,5.12,0,1,1,8.78,0a5.11,5.11,0,0,1,5.11,5.11" fill="currentColor"></path>
    <path d="M10.05,12.25H7.51A7.51,7.51,0,0,0,0,19.76V20H17.55v-.24a7.5,7.5,0,0,0-7.5-7.51" fill="currentColor"></path>
  </symbol>
  <symbol xmlns="http://www.w3.org/2000/svg" xmlns:xlink="http://www.w3.org/1999/xlink" viewBox="0 0 18.95 20" id="ic_viber">
    <path d="M16.83,2C16.34,1.51,14.34,0,9.85,0,9.85,0,4.58-.3,2,2.06.56,3.5.06,5.58,0,8.18S-.12,15.63,4.58,17v2s0,.81.5,1,1-.42,1.65-1.08c.34-.36.81-.89,1.15-1.31a17.72,17.72,0,0,0,6-.45c.66-.21,4.31-.68,4.91-5.53.63-5-.26-8.22-1.92-9.63M14,13.25a3.5,3.5,0,0,1-.85,1,1.68,1.68,0,0,1-.85.43h-.11a1.59,1.59,0,0,1-.37-.06,13.19,13.19,0,0,1-2.35-1.08,14,14,0,0,1-2-1.3,7.73,7.73,0,0,1-.88-.79l-.11-.11a9.91,9.91,0,0,1-.79-.88,15,15,0,0,1-1.31-2A11.25,11.25,0,0,1,3.35,6.18a1.43,1.43,0,0,1-.06-.37V5.7a1.47,1.47,0,0,1,.43-.85,4.52,4.52,0,0,1,1-.85.76.76,0,0,1,1,.17s.51.62.74.93.48.74.65,1A.92.92,0,0,1,7,7.22l-.51.4a.8.8,0,0,0-.23.6,5.19,5.19,0,0,0,3.51,3.53.77.77,0,0,0,.6-.22l.39-.51a.89.89,0,0,1,1.14-.17,8.76,8.76,0,0,1,1,.65c.31.22.93.73.93.73a.78.78,0,0,1,.17,1m-2.4-6.9a3.31,3.31,0,0,0-2.27-1,.42.42,0,0,1-.39-.45.42.42,0,0,1,.45-.39,4.16,4.16,0,0,1,2.83,1.27,3.86,3.86,0,0,1,1,2.79.43.43,0,0,1-.43.41h0a.43.43,0,0,1-.41-.44,3,3,0,0,0-.76-2.19m.19,1.73a.42.42,0,0,1-.4.44h0a.42.42,0,0,1-.42-.4c0-.86-.42-1.25-1.24-1.3a.41.41,0,0,1-.4-.44A.43.43,0,0,1,9.74,6a2,2,0,0,1,2,2.1m2.41,1.46a.42.42,0,0,1-.42-.42,5,5,0,0,0-1.43-3.77A4.87,4.87,0,0,0,8.81,4a.43.43,0,0,1,0-.85,5.73,5.73,0,0,1,4.12,1.62,5.88,5.88,0,0,1,1.68,4.38.42.42,0,0,1-.42.42" fill="currentColor"></path>
  </symbol>
  <symbol xmlns="http://www.w3.org/2000/svg" viewBox="0 0 24 28.28" id="ic_video_play">
    <polygon points="0 0 0 28.28 24 14.14 0 0" fill="currentColor"></polygon>
  </symbol>
  <symbol xmlns="http://www.w3.org/2000/svg" xmlns:xlink="http://www.w3.org/1999/xlink" viewBox="0 0 19.9 20" id="ic_whatsapp">
    <path d="M17,2.91A9.8,9.8,0,0,0,10,0,9.9,9.9,0,0,0,1.41,14.86L0,20l5.25-1.38A9.91,9.91,0,0,0,10,19.83h0A9.92,9.92,0,0,0,19.9,9.92a9.77,9.77,0,0,0-2.9-7M14.84,13.45a2.52,2.52,0,0,1-1.67,1.18,3.43,3.43,0,0,1-1.56-.1A14.3,14.3,0,0,1,10.2,14,11,11,0,0,1,6,10.27,4.82,4.82,0,0,1,5,7.71a2.82,2.82,0,0,1,.86-2.07,1,1,0,0,1,.67-.31H7c.15,0,.36-.06.56.43s.7,1.71.76,1.84A.46.46,0,0,1,8.3,8a1.46,1.46,0,0,1-.25.41c-.12.15-.26.33-.37.44s-.25.25-.11.5A7.87,7.87,0,0,0,9,11.11a7.19,7.19,0,0,0,2,1.23c.25.12.39.1.54-.07s.62-.72.78-1,.33-.2.56-.12,1.44.68,1.69.81.42.18.48.28a2.08,2.08,0,0,1-.15,1.18" fill-rule="evenodd" fill="currentColor"></path>
  </symbol>
</svg>